<svg aria-hidden="true" style="position:absolute;width:0;height:0" xmlns="http://www.w3.org/2000/svg" overflow="hidden">
<defs>
<!-- Customers Logo -->
<symbol id="client-1" viewBox="0 0 104 56">
<path d="M36.643 6.75l6.758 6.438-12.543-0.007v31.235h32.786v-11.943l6.75 6.431v-32.154h-33.75zM63.346 31.717l-19.16-18.254h19.16v18.254zM57.397 39.847h-21.352v-21.007h1.509v19.585h19.843v1.423zM40.303 50.202l-0.796-1.636h-0.657l1.153 2.166v1.262h0.596v-1.262l1.154-2.166h-0.654l-0.796 1.636zM43.237 48.566h0.141l1.295 3.428h-0.621l-0.277-0.803h-1.327l-0.277 0.803h-0.619l1.29-3.428h0.396zM42.608 50.722h1.004l-0.502-1.454-0.501 1.454zM46.751 50.154c-0.026-0.033-0.051-0.065-0.075-0.096-0.088-0.116-0.156-0.228-0.205-0.337-0.049-0.11-0.073-0.223-0.073-0.339 0-0.179 0.037-0.333 0.111-0.461s0.178-0.228 0.313-0.297c0.135-0.071 0.293-0.106 0.473-0.106 0.174 0 0.324 0.035 0.45 0.106 0.127 0.069 0.224 0.161 0.292 0.275 0.069 0.115 0.104 0.24 0.104 0.377 0 0.108-0.020 0.207-0.059 0.297s-0.093 0.171-0.162 0.245c-0.069 0.074-0.149 0.144-0.24 0.21l-0.238 0.173 0.679 0.801c0.022-0.044 0.043-0.090 0.061-0.139 0.058-0.151 0.087-0.318 0.087-0.502h0.49c0 0.166-0.017 0.324-0.049 0.473-0.031 0.149-0.082 0.287-0.153 0.414-0.029 0.053-0.061 0.103-0.097 0.151l0.502 0.593h-0.657l-0.199-0.234c-0.108 0.082-0.225 0.146-0.352 0.192-0.166 0.060-0.344 0.089-0.532 0.089-0.228 0-0.425-0.042-0.591-0.125s-0.295-0.198-0.386-0.344c-0.089-0.146-0.134-0.313-0.134-0.501 0-0.14 0.029-0.262 0.087-0.367 0.058-0.107 0.137-0.206 0.238-0.297 0.093-0.084 0.198-0.168 0.317-0.252zM47.032 50.499l-0.071 0.052c-0.083 0.067-0.145 0.133-0.186 0.195-0.039 0.061-0.065 0.118-0.078 0.17s-0.019 0.097-0.019 0.137c0 0.1 0.021 0.191 0.064 0.273 0.044 0.082 0.108 0.147 0.191 0.195 0.085 0.047 0.188 0.071 0.308 0.071 0.13 0 0.257-0.029 0.379-0.087 0.061-0.030 0.12-0.066 0.175-0.108l-0.763-0.897zM47.167 49.872l0.21-0.142c0.099-0.066 0.17-0.13 0.212-0.193 0.042-0.064 0.064-0.144 0.064-0.24 0-0.082-0.031-0.157-0.094-0.226s-0.152-0.104-0.266-0.104c-0.080 0-0.148 0.019-0.202 0.057-0.055 0.036-0.097 0.085-0.125 0.146-0.027 0.060-0.040 0.126-0.040 0.2 0 0.071 0.018 0.144 0.054 0.219 0.036 0.074 0.086 0.152 0.148 0.233 0.013 0.016 0.026 0.033 0.039 0.050zM53.164 50.877h-0.589c-0.017 0.149-0.053 0.275-0.108 0.379-0.053 0.102-0.133 0.18-0.238 0.233-0.104 0.053-0.239 0.080-0.407 0.080-0.138 0-0.257-0.027-0.356-0.082s-0.18-0.133-0.245-0.233c-0.063-0.1-0.11-0.221-0.141-0.36-0.030-0.141-0.045-0.298-0.045-0.471v-0.29c0-0.182 0.017-0.344 0.049-0.485 0.035-0.143 0.086-0.263 0.153-0.36s0.152-0.171 0.252-0.221c0.1-0.050 0.218-0.075 0.353-0.075 0.165 0 0.298 0.028 0.4 0.085 0.102 0.055 0.179 0.135 0.231 0.24 0.053 0.105 0.088 0.232 0.104 0.379h0.589c-0.024-0.229-0.088-0.432-0.193-0.61-0.104-0.177-0.249-0.316-0.438-0.417s-0.419-0.151-0.692-0.151c-0.215 0-0.409 0.038-0.582 0.113-0.171 0.075-0.318 0.184-0.44 0.327-0.122 0.141-0.217 0.311-0.283 0.511-0.064 0.199-0.097 0.422-0.097 0.669v0.285c0 0.246 0.031 0.469 0.094 0.669 0.064 0.199 0.157 0.37 0.278 0.511 0.121 0.14 0.266 0.248 0.435 0.325 0.17 0.075 0.36 0.113 0.572 0.113 0.276 0 0.511-0.050 0.704-0.151s0.343-0.238 0.45-0.412c0.107-0.176 0.17-0.376 0.188-0.6zM56.434 50.374v-0.188c0-0.259-0.035-0.49-0.104-0.694-0.068-0.206-0.164-0.381-0.29-0.525-0.126-0.146-0.275-0.257-0.45-0.332-0.174-0.077-0.367-0.115-0.579-0.115-0.21 0-0.403 0.038-0.577 0.115-0.173 0.075-0.323 0.186-0.45 0.332-0.126 0.144-0.223 0.319-0.292 0.525-0.069 0.204-0.104 0.436-0.104 0.694v0.188c0 0.259 0.035 0.491 0.104 0.697 0.071 0.206 0.17 0.381 0.297 0.525s0.277 0.255 0.45 0.332c0.174 0.075 0.367 0.113 0.577 0.113 0.212 0 0.405-0.038 0.579-0.113 0.174-0.077 0.323-0.188 0.447-0.332 0.126-0.144 0.222-0.319 0.29-0.525s0.101-0.438 0.101-0.697zM55.843 50.181v0.193c0 0.192-0.019 0.361-0.057 0.509-0.036 0.148-0.089 0.272-0.16 0.374-0.071 0.1-0.157 0.177-0.259 0.228-0.102 0.050-0.219 0.075-0.351 0.075-0.13 0-0.246-0.025-0.348-0.075-0.102-0.052-0.19-0.128-0.264-0.228-0.072-0.102-0.127-0.227-0.165-0.374s-0.057-0.317-0.057-0.509v-0.193c0-0.191 0.019-0.36 0.057-0.506 0.038-0.148 0.092-0.271 0.162-0.37 0.072-0.1 0.159-0.176 0.261-0.226 0.102-0.052 0.218-0.078 0.348-0.078s0.247 0.026 0.351 0.078c0.104 0.050 0.191 0.126 0.261 0.226 0.072 0.099 0.126 0.222 0.162 0.37 0.038 0.146 0.057 0.315 0.057 0.506z"></path>
</symbol>

<symbol id="client-2" viewBox="0 0 104 56">
<path d="M48.324 5.723h-0.132c-0.203-0.013-0.405-0.017-0.607-0.022h-0.439c-0.383 0-0.773 0.010-1.161 0.029-0.013-0.001-0.028-0.002-0.044-0.002s-0.031 0.001-0.046 0.002l0.002-0c-3.723 0.217-7.18 1.148-10.304 2.658l0.163-0.071-0.417 0.201v21.351l0.976-0.332c0.856-0.294 1.768-0.559 2.713-0.804 2.332-0.624 5.017-1 7.783-1.036l0.023-0v2.805c-0.349 0.002-0.688 0.012-1.027 0.029h-0.081c-2.192 0.123-4.246 0.452-6.223 0.97l0.217-0.048c-2.717 0.691-5.099 1.646-7.312 2.868l0.157-0.080v-27.383c2.161-1.285 4.661-2.332 7.308-3.010l0.199-0.043c2.12-0.57 4.556-0.902 7.068-0.912h0.418c0.493 0.013 0.974 0.035 1.425 0.068 1.189 0.084 2.368 0.272 3.524 0.562v2.761c-0.984-0.241-2.15-0.424-3.344-0.511l-0.071-0.004-0.070-0.006c-0.238-0.020-0.476-0.040-0.698-0.040zM53.183 8.545c0.612 0.047 1.247 0.069 1.888 0.069 2.647-0.010 5.208-0.358 7.649-1.002l-0.212 0.047c2.717-0.693 5.096-1.649 7.309-2.87l-0.158 0.080v26.894c-2.161 1.284-4.661 2.33-7.309 3.010l-0.199 0.043c-2.12 0.568-4.557 0.9-7.069 0.91h-0.006c-0.052 0-0.113 0.001-0.174 0.001-1.844 0-3.634-0.231-5.342-0.666l0.149 0.032v-27.069c0.415 0.096 0.842 0.184 1.276 0.257 0.713 0.121 1.464 0.208 2.196 0.262zM66.87 8.754l-0.976 0.328c-0.897 0.302-1.803 0.572-2.713 0.812-2.43 0.65-5.221 1.029-8.099 1.040h-0.006c-0.636 0-1.222-0.017-1.788-0.054l-0.778-0.051v21.964l0.668 0.058c0.619 0.055 1.258 0.082 1.903 0.082 2.273-0.010 4.471-0.311 6.565-0.867l-0.181 0.041c1.914-0.486 3.574-1.1 5.149-1.863l-0.159 0.070 0.417-0.201v-21.357z"></path>
<path d="M34.461 43.597c-0.262-0.271-0.629-0.44-1.035-0.44-0.018 0-0.036 0-0.053 0.001l0.003-0c-0.006-0-0.014-0-0.022-0-0.218 0-0.426 0.043-0.616 0.122l0.011-0.004c-0.371 0.149-0.658 0.439-0.799 0.802l-0.003 0.010c-0.077 0.193-0.115 0.398-0.112 0.606v3.658c-0.010 0.257 0.041 0.514 0.144 0.75 0.087 0.188 0.211 0.355 0.366 0.491 0.146 0.122 0.317 0.212 0.501 0.26 0.178 0.049 0.363 0.075 0.547 0.075 0.203 0.002 0.405-0.041 0.59-0.127 0.549-0.244 0.925-0.784 0.926-1.413v-0.409h-0.958v0.326c0 0.007 0 0.014 0 0.022 0 0.109-0.021 0.214-0.058 0.309l0.002-0.006c-0.033 0.081-0.080 0.15-0.139 0.206l-0 0c-0.11 0.085-0.249 0.137-0.4 0.14h-0.001c-0.017 0.002-0.036 0.003-0.056 0.003-0.161 0-0.303-0.078-0.391-0.199l-0.001-0.001c-0.080-0.129-0.128-0.286-0.128-0.453 0-0.013 0-0.026 0.001-0.038l-0 0.002v-3.412c-0.006-0.189 0.035-0.376 0.118-0.547 0.088-0.136 0.239-0.224 0.411-0.224 0.020 0 0.040 0.001 0.059 0.004l-0.002-0c0.005-0 0.012-0 0.018-0 0.167 0 0.316 0.081 0.408 0.205l0.001 0.001c0.099 0.129 0.158 0.293 0.158 0.47 0 0.007-0 0.014-0 0.022v-0.001 0.316h0.947v-0.373c0-0.005 0-0.011 0-0.016 0-0.224-0.043-0.439-0.121-0.636l0.004 0.012c-0.075-0.2-0.184-0.371-0.321-0.516l0.001 0.001zM40.142 43.557c-0.292-0.248-0.672-0.4-1.087-0.403h-0.001c-0.195 0-0.389 0.036-0.571 0.103-0.395 0.142-0.706 0.432-0.873 0.801l-0.004 0.009c-0.096 0.223-0.145 0.465-0.14 0.709v3.508c-0.007 0.247 0.041 0.492 0.14 0.718 0.087 0.189 0.212 0.357 0.37 0.491 0.147 0.135 0.318 0.241 0.505 0.309 0.183 0.068 0.376 0.102 0.571 0.103 0.418-0.001 0.799-0.157 1.089-0.413l-0.002 0.002c0.152-0.137 0.275-0.304 0.361-0.491 0.098-0.226 0.146-0.472 0.14-0.718v-3.509c0-0.009 0-0.020 0-0.031 0-0.245-0.052-0.478-0.144-0.688l0.004 0.011c-0.089-0.2-0.211-0.371-0.36-0.512l-0.001-0.001zM39.696 48.286c0.001 0.016 0.002 0.035 0.002 0.054 0 0.178-0.074 0.339-0.192 0.454l-0 0c-0.121 0.102-0.278 0.164-0.45 0.164s-0.329-0.062-0.451-0.165l0.001 0.001c-0.119-0.114-0.192-0.274-0.192-0.452 0-0.020 0.001-0.039 0.003-0.059l-0 0.002v-3.509c-0.001-0.016-0.002-0.035-0.002-0.054 0-0.178 0.074-0.338 0.192-0.453l0-0c0.121-0.102 0.278-0.164 0.45-0.164s0.329 0.062 0.451 0.165l-0.001-0.001c0.119 0.115 0.192 0.275 0.192 0.453 0 0.019-0.001 0.038-0.003 0.057l0-0.002v3.51zM47.604 49.854v-6.644h-0.919l-1.208 3.517h-0.016l-1.218-3.516h-0.909v6.642h0.949v-4.040h0.017l0.929 2.856h0.473l0.936-2.856h0.017v4.040h0.949zM52.995 43.676c-0.146-0.164-0.331-0.289-0.536-0.364-0.195-0.066-0.419-0.104-0.652-0.104-0.013 0-0.026 0-0.038 0l0.002-0h-1.41v6.644h0.947v-2.595h0.487c0.296 0.013 0.589-0.049 0.854-0.181 0.217-0.122 0.393-0.295 0.516-0.502l0.003-0.006c0.109-0.176 0.183-0.373 0.217-0.579 0.033-0.209 0.051-0.45 0.051-0.696 0-0.021-0-0.042-0-0.063l0 0.003c0.010-0.318-0.022-0.638-0.093-0.949-0.067-0.239-0.188-0.445-0.349-0.611l0 0zM52.507 45.701c-0.004 0.127-0.036 0.245-0.090 0.351l0.002-0.005c-0.055 0.102-0.139 0.182-0.241 0.231l-0.003 0.001c-0.117 0.054-0.253 0.085-0.397 0.085-0.017 0-0.034-0-0.051-0.001l0.002 0h-0.432v-2.258h0.488c0.014-0.001 0.030-0.001 0.046-0.001 0.138 0 0.27 0.031 0.387 0.086l-0.006-0.002c0.098 0.057 0.174 0.141 0.22 0.242l0.001 0.003c0.052 0.117 0.080 0.243 0.083 0.37v0.442c0 0.154 0.010 0.314 0 0.456h-0.010zM57.479 43.21h-0.776l-1.464 6.644h0.947l0.278-1.427h1.291l0.278 1.427h0.946l-1.499-6.644zM56.605 47.521l0.466-2.408h0.017l0.463 2.408h-0.946zM63.595 47.211h-0.017l-1.429-4.002h-0.91v6.644h0.946v-3.995h0.019l1.446 3.994h0.891v-6.642h-0.946v4.002zM69.378 43.21l-0.762 2.642h-0.019l-0.762-2.642h-1.001l1.3 3.836v2.807h0.947v-2.807l1.3-3.835h-1.003zM31.821 51.729h0.456v1.28h0.31v-1.281h0.453v-0.262h-1.219v0.263zM35.656 51.466l-0.598 1.543h0.329l0.127-0.351h0.615l0.131 0.351h0.338l-0.613-1.543h-0.329zM35.608 52.398l0.209-0.572 0.209 0.572h-0.419zM39.447 52.44h0.357v0.199c-0.099 0.080-0.227 0.129-0.366 0.13h-0c-0.007 0-0.014 0.001-0.022 0.001-0.124 0-0.234-0.058-0.305-0.147l-0.001-0.001c-0.072-0.103-0.115-0.23-0.115-0.368 0-0.012 0-0.024 0.001-0.036l-0 0.002c0-0.343 0.148-0.515 0.444-0.515 0.010-0.001 0.022-0.002 0.033-0.002 0.152 0 0.28 0.104 0.315 0.245l0 0.002 0.305-0.060c-0.066-0.301-0.283-0.453-0.654-0.453-0.006-0-0.013-0-0.021-0-0.2 0-0.382 0.076-0.519 0.2l0.001-0.001c-0.138 0.136-0.224 0.326-0.224 0.536 0 0.020 0.001 0.040 0.002 0.060l-0-0.003c-0 0.011-0.001 0.023-0.001 0.036 0 0.207 0.075 0.397 0.199 0.544l-0.001-0.001c0.136 0.141 0.327 0.228 0.538 0.228 0.017 0 0.033-0.001 0.050-0.002l-0.002 0c0.007 0 0.016 0 0.025 0 0.243 0 0.464-0.094 0.629-0.247l-0.001 0.001v-0.608h-0.668v0.26zM43.319 51.466h-0.312v1.543h1.080v-0.262h-0.768v-1.281zM46.592 51.466h-0.312v1.543h0.312v-1.543zM49.792 52.496l-0.632-1.030h-0.302v1.543h0.289v-1.008l0.62 1.008h0.311v-1.543h-0.286v1.031zM52.686 52.329h0.769v-0.262h-0.769v-0.337h0.826v-0.263h-1.139v1.543h1.171v-0.262h-0.858v-0.418zM59.701 52.074h-0.607v-0.607h-0.309v1.542h0.309v-0.675h0.607v0.675h0.31v-1.543h-0.31v0.608zM62.611 52.329h0.771v-0.262h-0.771v-0.337h0.829v-0.263h-1.138v1.543h1.169v-0.262h-0.858v-0.418zM66.558 52.33c0.269-0.042 0.405-0.184 0.405-0.429 0.002-0.013 0.003-0.028 0.003-0.043 0-0.123-0.060-0.232-0.153-0.299l-0.001-0.001c-0.114-0.058-0.249-0.093-0.391-0.093-0.021 0-0.042 0.001-0.063 0.002l0.003-0h-0.654v1.542h0.31v-0.645h0.061c0.007-0 0.016-0.001 0.025-0.001 0.061 0 0.119 0.013 0.171 0.036l-0.003-0.001c0.045 0.028 0.083 0.067 0.11 0.113l0.337 0.49h0.37l-0.188-0.301c-0.085-0.151-0.2-0.275-0.338-0.368l-0.004-0.002zM66.245 52.116h-0.229v-0.387h0.244c0.020-0.002 0.042-0.003 0.065-0.003 0.089 0 0.175 0.014 0.255 0.041l-0.006-0.002c0.041 0.037 0.067 0.091 0.067 0.151 0 0.066-0.032 0.125-0.081 0.162l-0.001 0c-0.077 0.024-0.166 0.039-0.258 0.039-0.020 0-0.040-0.001-0.060-0.002l0.003 0zM69.535 52.329h0.768v-0.262h-0.768v-0.337h0.829v-0.263h-1.142v1.543h1.171v-0.262h-0.858v-0.418z"></path>
</symbol>

<symbol id="client-3" viewBox="0 0 104 56">
<path d="M35.495 47.465c0.016 0.001 0.031 0.004 0.045 0.010l-0.001-0c0.015 0.005 0.028 0.013 0.039 0.022l-0-0 0.212 0.201c-0.166 0.161-0.365 0.29-0.586 0.376l-0.012 0.004c-0.27 0.096-0.559 0.143-0.85 0.136-0.013 0-0.029 0-0.045 0-0.27 0-0.53-0.047-0.771-0.133l0.016 0.005c-0.233-0.083-0.433-0.205-0.602-0.36l0.001 0.001c-0.164-0.152-0.296-0.337-0.385-0.545l-0.004-0.010c-0.086-0.204-0.136-0.442-0.136-0.691 0-0.007 0-0.015 0-0.022v0.001c-0-0.007-0-0.015-0-0.024 0-0.25 0.054-0.488 0.151-0.702l-0.004 0.011c0.093-0.206 0.233-0.395 0.413-0.554 0.181-0.157 0.398-0.28 0.638-0.363 0.262-0.087 0.541-0.129 0.823-0.127 0.26-0.005 0.521 0.035 0.764 0.116 0.211 0.079 0.405 0.187 0.573 0.321l-0.178 0.214c-0.013 0.015-0.028 0.028-0.045 0.038l-0.001 0c-0.018 0.011-0.039 0.017-0.062 0.017-0.003 0-0.007-0-0.010-0l0 0c-0.029-0.002-0.055-0.010-0.078-0.024l0.001 0-0.096-0.057-0.132-0.072c-0.122-0.059-0.263-0.103-0.412-0.127l-0.009-0.001c-0.087-0.014-0.188-0.022-0.29-0.022-0.010 0-0.019 0-0.029 0h0.001c-0.006-0-0.014-0-0.021-0-0.204 0-0.4 0.035-0.582 0.099l0.012-0.004c-0.179 0.062-0.333 0.153-0.464 0.269l0.001-0.001c-0.133 0.124-0.235 0.27-0.301 0.428-0.069 0.161-0.109 0.349-0.109 0.545 0 0.007 0 0.013 0 0.020v-0.001c-0 0.006-0 0.014-0 0.022 0 0.199 0.040 0.388 0.113 0.561l-0.004-0.009c0.137 0.326 0.401 0.574 0.729 0.687l0.009 0.003c0.174 0.062 0.36 0.093 0.548 0.091 0.109 0.002 0.218-0.005 0.325-0.018 0.27-0.027 0.511-0.134 0.705-0.295l-0.002 0.002c0.028-0.022 0.063-0.036 0.101-0.037h0zM41.644 46.459c0.004 0.241-0.045 0.482-0.144 0.708-0.087 0.205-0.223 0.392-0.401 0.55-0.177 0.156-0.391 0.28-0.629 0.36-0.242 0.081-0.52 0.127-0.809 0.127s-0.567-0.047-0.828-0.133l0.019 0.005c-0.242-0.084-0.45-0.207-0.629-0.363l0.002 0.002c-0.17-0.151-0.306-0.336-0.4-0.544l-0.004-0.010c-0.091-0.209-0.144-0.453-0.144-0.709s0.053-0.5 0.148-0.721l-0.005 0.012c0.091-0.206 0.229-0.395 0.405-0.557 0.178-0.151 0.391-0.27 0.626-0.347 0.521-0.174 1.097-0.174 1.618 0 0.236 0.082 0.45 0.204 0.628 0.362 0.336 0.3 0.546 0.734 0.546 1.217 0 0.015-0 0.030-0.001 0.045l0-0.002zM41.084 46.459c0.005-0.193-0.029-0.386-0.1-0.569-0.13-0.33-0.395-0.583-0.727-0.691l-0.008-0.002c-0.176-0.059-0.378-0.093-0.588-0.093s-0.413 0.034-0.602 0.097l0.013-0.004c-0.175 0.061-0.325 0.153-0.451 0.27l0.001-0.001c-0.124 0.115-0.222 0.257-0.285 0.417l-0.003 0.008c-0.135 0.371-0.135 0.768 0 1.138 0.060 0.157 0.158 0.302 0.287 0.425 0.125 0.116 0.28 0.207 0.45 0.266 0.379 0.121 0.797 0.121 1.176 0 0.171-0.059 0.325-0.15 0.449-0.266 0.128-0.123 0.225-0.269 0.285-0.425 0.071-0.183 0.106-0.376 0.1-0.569zM45.838 47.056l0.056 0.127c0.022-0.045 0.041-0.087 0.062-0.127 0.020-0.043 0.043-0.085 0.069-0.125l1.36-2.112c0.027-0.038 0.051-0.060 0.077-0.067 0.027-0.007 0.058-0.011 0.091-0.011 0.007 0 0.015 0 0.022 0.001l-0.001-0h0.402v3.436h-0.476v-2.633c-0.001-0.018-0.002-0.038-0.002-0.059s0.001-0.042 0.002-0.062l-0 0.003-1.368 2.142c-0.019 0.033-0.046 0.060-0.079 0.078l-0.001 0.001c-0.033 0.018-0.073 0.029-0.115 0.029-0.001 0-0.001 0-0.002 0h-0.077c-0.001 0-0.002 0-0.003 0-0.042 0-0.081-0.011-0.116-0.030l0.001 0.001c-0.034-0.018-0.060-0.044-0.079-0.076l-0-0.001-1.408-2.156v2.758h-0.461v-3.429h0.402c0.005-0 0.012-0 0.018-0 0.033 0 0.066 0.004 0.096 0.013l-0.003-0.001c0.032 0.013 0.058 0.036 0.074 0.065l0 0.001 1.389 2.115c0.025 0.036 0.048 0.076 0.068 0.119l0.002 0.005zM50.958 46.886v1.286h-0.532v-3.431h1.186c0.225-0.004 0.448 0.021 0.663 0.075 0.173 0.041 0.332 0.114 0.469 0.213 0.114 0.089 0.204 0.202 0.264 0.332l0.002 0.006c0.063 0.14 0.094 0.288 0.091 0.439 0 0.004 0 0.010 0 0.015 0 0.313-0.151 0.591-0.383 0.765l-0.002 0.002c-0.134 0.101-0.292 0.179-0.463 0.224l-0.010 0.002c-0.18 0.051-0.387 0.080-0.601 0.080-0.014 0-0.028-0-0.042-0l-0.642-0.010zM50.958 46.517h0.644c0.14 0.001 0.28-0.016 0.413-0.053 0.114-0.033 0.213-0.083 0.3-0.149l-0.002 0.002c0.15-0.12 0.245-0.303 0.245-0.508 0-0.003 0-0.006-0-0.008v0c0.001-0.010 0.001-0.023 0.001-0.035 0-0.089-0.020-0.173-0.057-0.248l0.001 0.003c-0.045-0.093-0.108-0.172-0.185-0.233l-0.001-0.001c-0.178-0.117-0.397-0.187-0.632-0.187-0.030 0-0.059 0.001-0.088 0.003l0.004-0h-0.644v1.415zM58.112 48.177h-0.42c-0.002 0-0.005 0-0.007 0-0.041 0-0.078-0.012-0.11-0.032l0.001 0c-0.029-0.020-0.053-0.047-0.069-0.078l-0.001-0.001-0.362-0.83h-1.819l-0.375 0.829c-0.015 0.032-0.038 0.058-0.066 0.077l-0.001 0c-0.032 0.022-0.071 0.035-0.113 0.035-0.002 0-0.005-0-0.007-0h-0.42l1.597-3.437h0.553l1.618 3.437zM55.477 46.901h1.501l-0.634-1.398c-0.043-0.089-0.084-0.196-0.116-0.307l-0.004-0.016-0.061 0.179c-0.019 0.055-0.040 0.104-0.058 0.145l-0.629 1.398zM60.412 44.756c0.031 0.015 0.058 0.036 0.079 0.061l0 0 2.33 2.59v-2.667h0.476v3.436h-0.266c-0.003 0-0.006 0-0.009 0-0.036 0-0.071-0.007-0.103-0.021l0.002 0.001c-0.033-0.017-0.061-0.038-0.085-0.063l-0-0-2.326-2.588c0.001 0.018 0.002 0.038 0.002 0.059s-0.001 0.042-0.002 0.062l0-0.003v2.553h-0.476v-3.436h0.282c0.033-0.001 0.066 0.004 0.096 0.015zM67.22 46.81v1.364h-0.532v-1.364l-1.472-2.069h0.476c0.004-0 0.008-0 0.012-0 0.038 0 0.073 0.011 0.103 0.030l-0.001-0c0.029 0.022 0.053 0.048 0.071 0.077l0.921 1.336c0.063 0.088 0.118 0.188 0.159 0.296l0.003 0.009 0.069-0.148c0.026-0.054 0.057-0.106 0.091-0.157l0.907-1.344c0.020-0.028 0.043-0.052 0.069-0.073l0.001-0.001c0.029-0.021 0.066-0.034 0.105-0.034 0.003 0 0.007 0 0.010 0h0.482l-1.475 2.079zM45.575 38.974c0.231 0.025 0.466 0.045 0.703 0.064 3.592-1.372 6.629-3.619 8.735-6.46 2.105-2.84 3.184-6.146 3.101-9.508l-3.957-3.382c0.804 3.578 0.428 7.277-1.088 10.684-1.516 3.405-4.111 6.384-7.494 8.601z"></path>
<path d="M44.161 38.816l0.106 0.018c3.616-2.21 6.374-5.296 7.915-8.859 1.542-3.563 1.796-7.439 0.731-11.127l-5.637-4.817c2.281 3.959 3.199 8.39 2.647 12.777s-2.55 8.551-5.761 12.007zM63.281 27.041c-0.958 3.693-3.284 7.024-6.633 9.498-0.913 0.683-1.945 1.326-3.031 1.877l-0.121 0.056c2.727-0.685 5.234-1.896 7.327-3.539s3.716-3.676 4.744-5.94l-2.285-1.952z"></path>
<path d="M62.384 26.497l-3.255-2.781c-0.063 3.172-1.118 6.27-3.056 8.975s-4.689 4.917-7.967 6.406h0.016c0.77-0 1.53-0.040 2.279-0.119l-0.093 0.008c3.063-1.068 5.769-2.768 7.876-4.947s3.55-4.77 4.2-7.541zM44.633 12.002l-3.882-3.323c-3.471 1.147-6.458 3.161-8.567 5.781-2.11 2.621-3.244 5.724-3.254 8.904 0.013 3.513 1.397 6.924 3.934 9.689 2.536 2.766 6.080 4.73 10.069 5.582 3.562-3.709 5.648-8.29 5.953-13.080s-1.184-9.537-4.252-13.554zM71.357 25.986c-0.014-4.17-1.958-8.164-5.41-11.111-3.449-2.948-8.125-4.609-13.004-4.622-0.013-0-0.028-0-0.043-0-2.343 0-4.595 0.384-6.699 1.091l0.148-0.043 23.778 20.316c0.774-1.653 1.227-3.589 1.229-5.631v-0.001z"></path>
</symbol>

<symbol id="client-4" viewBox="0 0 104 56">
<path d="M23.218 20.749h-0.003c-2.3 0-4.166 1.682-4.166 3.755v0.003c0 2.073 1.866 3.755 4.166 3.755h0.003c2.301 0 4.166-1.681 4.166-3.755v-0.003c0-2.073-1.865-3.755-4.166-3.755zM53.962 19.549c-0.006-2.881-1.278-5.641-3.537-7.68-2.259-2.037-5.321-3.184-8.518-3.191-3.196 0.005-6.259 1.152-8.519 3.19s-3.533 4.799-3.54 7.681v15.886s24.111-2.42 24.113-15.883v-0.003zM10.607 40.648c0.006 2.005 0.891 3.926 2.463 5.343s3.703 2.217 5.926 2.223c2.223-0.006 4.353-0.804 5.925-2.222s2.457-3.336 2.464-5.342v-11.052s-16.777 1.685-16.777 11.050zM18.995 42.629c-0.434 0-0.859-0.116-1.221-0.334-0.352-0.211-0.63-0.514-0.804-0.877l-0.005-0.012c-0.106-0.222-0.167-0.483-0.167-0.758 0-0.137 0.015-0.27 0.044-0.398l-0.002 0.012c0.095-0.406 0.308-0.753 0.6-1.013l0.002-0.002c0.306-0.272 0.688-0.465 1.112-0.54l0.014-0.002c0.426-0.077 0.868-0.038 1.269 0.113s0.744 0.404 0.985 0.729c0.241 0.326 0.37 0.709 0.37 1.1 0.001 0.26-0.055 0.519-0.165 0.761s-0.272 0.46-0.475 0.645c-0.201 0.181-0.438 0.327-0.698 0.426l-0.015 0.005c-0.25 0.096-0.539 0.151-0.84 0.151-0.001 0-0.002 0-0.003 0h0v-0.008zM34.337 39.068v4.114h-0.848v-4.114h0.848zM35.977 40.825v0.662h-1.871v-0.662h1.871zM36.173 39.068v0.663h-2.066v-0.663h2.067zM40.044 41.028v0.195c0 0.313-0.042 0.593-0.127 0.842-0.081 0.246-0.204 0.458-0.361 0.639l0.002-0.002c-0.154 0.174-0.339 0.306-0.553 0.398-0.202 0.087-0.437 0.138-0.684 0.138-0.009 0-0.018-0-0.027-0h0.001c-0.257 0-0.494-0.046-0.709-0.138-0.218-0.096-0.402-0.23-0.552-0.397l-0.001-0.001c-0.157-0.179-0.281-0.391-0.361-0.623l-0.004-0.013c-0.081-0.24-0.128-0.517-0.128-0.804 0-0.013 0-0.026 0-0.039v0.002-0.195c0-0.314 0.042-0.595 0.127-0.842 0.085-0.249 0.204-0.46 0.359-0.636 0.156-0.174 0.34-0.309 0.553-0.4 0.215-0.093 0.451-0.139 0.71-0.139 0.26 0 0.496 0.046 0.709 0.139 0.215 0.093 0.399 0.226 0.553 0.401 0.156 0.175 0.277 0.387 0.362 0.636 0.087 0.246 0.13 0.526 0.13 0.841zM39.188 41.223v-0.201c0-0.218-0.019-0.41-0.059-0.576-0.035-0.159-0.096-0.299-0.178-0.423l0.003 0.005c-0.072-0.107-0.167-0.194-0.278-0.253l-0.004-0.002c-0.106-0.055-0.232-0.087-0.364-0.087-0.006 0-0.012 0-0.017 0h0.001c-0.144 0-0.27 0.029-0.382 0.087-0.115 0.062-0.209 0.148-0.278 0.252l-0.002 0.003c-0.078 0.12-0.137 0.26-0.171 0.41l-0.002 0.009c-0.038 0.162-0.059 0.348-0.059 0.54 0 0.013 0 0.025 0 0.038v-0.002 0.201c0 0.217 0.019 0.409 0.059 0.577 0.040 0.166 0.098 0.306 0.175 0.421 0.072 0.107 0.167 0.194 0.278 0.254l0.004 0.002c0.111 0.058 0.238 0.087 0.381 0.087 0.144 0 0.27-0.029 0.382-0.087 0.115-0.062 0.209-0.149 0.278-0.255l0.002-0.003c0.077-0.121 0.137-0.261 0.171-0.412l0.002-0.009c0.039-0.168 0.059-0.36 0.059-0.577zM42.795 42.105c0-0.003 0-0.006 0-0.009 0-0.068-0.012-0.133-0.035-0.192l0.001 0.004c-0.025-0.066-0.066-0.122-0.118-0.163l-0.001-0.001c-0.071-0.058-0.152-0.108-0.239-0.147l-0.007-0.003c-0.11-0.051-0.246-0.103-0.385-0.146l-0.025-0.007c-0.217-0.070-0.392-0.139-0.563-0.217l0.032 0.013c-0.168-0.076-0.313-0.164-0.446-0.267l0.005 0.004c-0.121-0.097-0.221-0.214-0.296-0.347l-0.003-0.006c-0.068-0.13-0.108-0.283-0.108-0.446 0-0.007 0-0.014 0-0.021v0.001c-0-0.004-0-0.008-0-0.013 0-0.166 0.042-0.322 0.115-0.458l-0.003 0.005c0.075-0.142 0.181-0.262 0.316-0.362 0.135-0.102 0.296-0.18 0.48-0.235 0.187-0.054 0.391-0.082 0.613-0.082 0.303 0 0.568 0.055 0.794 0.164s0.401 0.259 0.526 0.449c0.125 0.19 0.189 0.408 0.189 0.653h-0.842c0-0.004 0-0.009 0-0.014 0-0.111-0.028-0.215-0.078-0.305l0.002 0.003c-0.052-0.095-0.129-0.169-0.223-0.217l-0.003-0.001c-0.102-0.050-0.222-0.080-0.35-0.080-0.010 0-0.021 0-0.031 0.001l0.001-0c-0.008-0-0.018-0-0.028-0-0.122 0-0.239 0.025-0.344 0.070l0.006-0.002c-0.092 0.038-0.167 0.099-0.221 0.177l-0.001 0.002c-0.045 0.068-0.072 0.151-0.072 0.241 0 0.003 0 0.005 0 0.008v-0c0 0.069 0.016 0.132 0.050 0.189 0.043 0.063 0.096 0.116 0.157 0.157l0.002 0.001c0.069 0.048 0.154 0.095 0.257 0.139s0.22 0.086 0.353 0.127c0.225 0.068 0.421 0.144 0.591 0.229 0.171 0.085 0.314 0.179 0.429 0.285s0.202 0.225 0.26 0.359c0.058 0.134 0.087 0.285 0.087 0.454 0.001 0.012 0.001 0.026 0.001 0.040 0 0.327-0.159 0.618-0.405 0.797l-0.003 0.002c-0.131 0.098-0.289 0.174-0.472 0.224-0.177 0.049-0.38 0.077-0.589 0.077-0.008 0-0.017-0-0.025-0h0.001c-0.203 0-0.404-0.027-0.602-0.080-0.205-0.057-0.385-0.141-0.546-0.25l0.006 0.004c-0.158-0.109-0.287-0.248-0.381-0.411l-0.003-0.006c-0.096-0.17-0.144-0.37-0.144-0.602h0.851c0 0.128 0.019 0.236 0.059 0.325 0.038 0.086 0.095 0.158 0.166 0.213l0.001 0.001c0.074 0.054 0.161 0.095 0.255 0.118l0.005 0.001c0.101 0.025 0.212 0.037 0.333 0.037 0.010 0 0.021 0.001 0.032 0.001 0.119 0 0.232-0.023 0.336-0.064l-0.006 0.002c0.167-0.067 0.283-0.227 0.283-0.415 0-0.002 0-0.005-0-0.007v0zM46.058 39.068v4.114h-0.845v-4.114h0.845zM47.324 39.068v0.663h-3.356v-0.663h3.356zM50.567 42.52v0.661h-2.189v-0.661h2.189zM48.655 39.068v4.114h-0.849v-4.114h0.849zM50.282 40.743v0.644h-1.904v-0.644h1.904zM50.564 39.068v0.663h-2.187v-0.663h2.187zM51.062 39.068h1.533c0.315 0 0.585 0.047 0.811 0.141 0.229 0.094 0.403 0.234 0.526 0.419s0.183 0.412 0.183 0.681c0 0.221-0.037 0.41-0.113 0.568-0.074 0.158-0.18 0.289-0.311 0.391l-0.002 0.002c-0.135 0.103-0.291 0.188-0.46 0.245l-0.011 0.003-0.268 0.142h-1.334l-0.006-0.661h0.991c0.008 0 0.018 0.001 0.028 0.001 0.125 0 0.242-0.029 0.347-0.082l-0.004 0.002c0.095-0.050 0.171-0.126 0.219-0.218l0.001-0.003c0.048-0.091 0.076-0.198 0.076-0.313 0-0.005-0-0.011-0-0.016v0.001c0-0.006 0-0.012 0-0.019 0-0.117-0.027-0.228-0.075-0.327l0.002 0.004c-0.050-0.096-0.127-0.172-0.221-0.22l-0.003-0.001c-0.102-0.048-0.221-0.077-0.347-0.077-0.010 0-0.020 0-0.030 0.001l0.001-0h-0.687v3.45h-0.847v-4.114zM53.361 43.182l-0.937-1.834 0.895-0.006 0.95 1.8v0.039h-0.906zM57.811 41.716h-1.048v-0.662h1.048c0.011 0 0.023 0.001 0.036 0.001 0.13 0 0.254-0.029 0.365-0.081l-0.005 0.002c0.097-0.051 0.174-0.129 0.221-0.224l0.001-0.003c0.044-0.098 0.070-0.213 0.070-0.333s-0.026-0.235-0.072-0.338l0.002 0.005c-0.048-0.107-0.125-0.194-0.22-0.253l-0.002-0.001c-0.105-0.061-0.23-0.097-0.364-0.097-0.011 0-0.022 0-0.032 0.001l0.002-0h-0.755v3.45h-0.847v-4.114h1.601c0.323 0 0.598 0.058 0.829 0.175 0.231 0.115 0.408 0.274 0.53 0.477s0.183 0.436 0.183 0.697c0 0.266-0.061 0.496-0.183 0.689s-0.299 0.344-0.53 0.449c-0.231 0.106-0.506 0.158-0.829 0.158zM62.698 42.52v0.661h-2.189v-0.661h2.189zM60.786 39.068v4.114h-0.849v-4.114h0.849zM62.412 40.743v0.644h-1.904v-0.644h1.904zM62.695 39.068v0.663h-2.186v-0.663h2.186zM65.088 39.068v4.114h-0.845v-4.114h0.845zM66.353 39.068v0.663h-3.356v-0.663h3.356zM69.596 42.52v0.661h-2.189v-0.661h2.189zM67.684 39.068v4.114h-0.848v-4.114h0.848zM69.311 40.743v0.644h-1.903v-0.644h1.903zM69.593 39.068v0.663h-2.186v-0.663h2.186zM70.091 39.068h1.533c0.315 0 0.585 0.047 0.812 0.141s0.403 0.234 0.526 0.419c0.121 0.184 0.183 0.412 0.183 0.681 0 0.221-0.039 0.41-0.113 0.568s-0.181 0.289-0.311 0.391l-0.002 0.002c-0.135 0.104-0.292 0.188-0.461 0.245l-0.011 0.003-0.268 0.142h-1.334l-0.006-0.661h0.992c0.008 0 0.018 0 0.027 0 0.125 0 0.242-0.029 0.347-0.082l-0.004 0.002c0.095-0.050 0.171-0.126 0.219-0.218l0.001-0.003c0.049-0.091 0.077-0.2 0.077-0.315 0-0.005-0-0.009-0-0.014v0.001c0-0.005 0-0.011 0-0.017 0-0.118-0.027-0.23-0.076-0.329l0.002 0.004c-0.049-0.096-0.126-0.172-0.22-0.22l-0.003-0.001c-0.102-0.048-0.221-0.077-0.347-0.077-0.010 0-0.020 0-0.030 0.001l0.001-0h-0.687v3.45h-0.848v-4.114zM72.391 43.182l-0.938-1.834 0.896-0.006 0.949 1.8v0.039h-0.906zM75.939 42.105c0-0.002 0-0.004 0-0.006 0-0.069-0.013-0.135-0.036-0.195l0.001 0.004c-0.025-0.066-0.066-0.122-0.118-0.163l-0.001-0.001c-0.071-0.058-0.152-0.108-0.239-0.147l-0.007-0.003c-0.109-0.051-0.245-0.103-0.384-0.146l-0.025-0.007c-0.217-0.070-0.393-0.139-0.564-0.217l0.032 0.013c-0.168-0.076-0.313-0.164-0.446-0.267l0.005 0.004c-0.121-0.097-0.221-0.214-0.296-0.347l-0.003-0.006c-0.068-0.13-0.108-0.283-0.108-0.446 0-0.007 0-0.014 0-0.021v0.001c0-0.172 0.038-0.327 0.113-0.466 0.075-0.142 0.181-0.262 0.316-0.362 0.135-0.102 0.296-0.18 0.48-0.235 0.187-0.054 0.391-0.082 0.613-0.082 0.303 0 0.568 0.055 0.794 0.164s0.401 0.259 0.526 0.449c0.126 0.19 0.189 0.408 0.189 0.653h-0.842c0-0.004 0-0.009 0-0.014 0-0.111-0.028-0.215-0.078-0.305l0.002 0.003c-0.052-0.095-0.129-0.169-0.223-0.217l-0.003-0.001c-0.102-0.050-0.222-0.080-0.35-0.080-0.010 0-0.021 0-0.031 0.001l0.001-0c-0.008-0-0.018-0-0.028-0-0.122 0-0.239 0.025-0.344 0.070l0.006-0.002c-0.091 0.038-0.166 0.099-0.22 0.177l-0.001 0.002c-0.046 0.068-0.073 0.152-0.073 0.243 0 0.002 0 0.004 0 0.007v-0c0 0.069 0.016 0.132 0.050 0.189 0.043 0.063 0.096 0.116 0.157 0.157l0.002 0.001c0.069 0.048 0.154 0.095 0.257 0.139s0.22 0.086 0.353 0.127c0.225 0.068 0.421 0.144 0.591 0.229 0.171 0.085 0.314 0.179 0.429 0.285s0.202 0.225 0.26 0.359c0.058 0.134 0.087 0.285 0.087 0.454 0.001 0.012 0.001 0.026 0.001 0.040 0 0.327-0.159 0.618-0.405 0.797l-0.003 0.002c-0.131 0.098-0.289 0.174-0.472 0.224-0.177 0.049-0.38 0.077-0.589 0.077-0.008 0-0.016-0-0.024-0h0.001c-0.203 0-0.405-0.027-0.602-0.080-0.205-0.057-0.385-0.141-0.546-0.25l0.006 0.004c-0.159-0.109-0.288-0.248-0.382-0.411l-0.003-0.006c-0.096-0.17-0.144-0.37-0.144-0.602h0.85c0 0.128 0.019 0.236 0.059 0.325 0.038 0.086 0.095 0.158 0.166 0.213l0.001 0.001c0.074 0.054 0.161 0.095 0.255 0.118l0.005 0.001c0.101 0.025 0.212 0.037 0.334 0.037 0.009 0 0.020 0.001 0.031 0.001 0.119 0 0.232-0.023 0.336-0.064l-0.006 0.002c0.167-0.067 0.283-0.228 0.283-0.415 0-0.002 0-0.004-0-0.006v0z"></path>
</symbol>

<symbol id="client-5" viewBox="0 0 104 56">
<path d="M25.835 42.788c0.236 0.264 0.363 0.594 0.357 0.933 0.012 0.221-0.032 0.442-0.127 0.646s-0.241 0.386-0.425 0.532c-0.403 0.273-0.901 0.436-1.436 0.436-0.059 0-0.118-0.002-0.177-0.006l0.008 0h-2.821v-5.913h2.763c0.049-0.003 0.106-0.005 0.163-0.005 0.508 0 0.981 0.148 1.378 0.404l-0.010-0.006c0.177 0.135 0.319 0.305 0.413 0.497s0.135 0.401 0.122 0.61c0.016 0.326-0.097 0.646-0.321 0.904-0.218 0.233-0.506 0.399-0.83 0.461l-0.010 0.002c0.374 0.062 0.712 0.241 0.953 0.505zM22.527 41.895h1.181c0.268 0.018 0.534-0.051 0.75-0.196 0.086-0.070 0.155-0.157 0.201-0.258l0.002-0.004c0.034-0.076 0.054-0.164 0.054-0.257 0-0.021-0.001-0.042-0.003-0.062l0 0.003c0.001-0.015 0.002-0.032 0.002-0.050 0-0.095-0.020-0.186-0.057-0.268l0.002 0.004c-0.046-0.105-0.113-0.193-0.196-0.263l-0.001-0.001c-0.191-0.127-0.425-0.202-0.677-0.202-0.034 0-0.067 0.001-0.1 0.004l0.004-0h-1.163v1.551zM24.574 44.163c0.092-0.072 0.166-0.162 0.216-0.267l0.002-0.004c0.040-0.083 0.063-0.181 0.063-0.284 0-0.016-0.001-0.032-0.002-0.048l0 0.002c0.001-0.012 0.001-0.027 0.001-0.042 0-0.106-0.024-0.206-0.068-0.296l0.002 0.004c-0.053-0.11-0.128-0.201-0.22-0.272l-0.002-0.001c-0.204-0.136-0.454-0.216-0.723-0.216-0.028 0-0.055 0.001-0.083 0.003l0.004-0h-1.238v1.627h1.255c0.283 0.014 0.562-0.058 0.793-0.205zM31.483 45.331l-1.537-2.311h-0.579v2.31h-1.321v-5.913h2.502c0.054-0.004 0.117-0.006 0.18-0.006 0.587 0 1.13 0.191 1.57 0.514l-0.007-0.005c0.35 0.321 0.561 0.744 0.595 1.193s-0.111 0.893-0.409 1.254c-0.309 0.318-0.73 0.531-1.194 0.602l1.636 2.362h-1.437zM29.368 42.214h1.081c0.751 0 1.126-0.299 1.126-0.896 0.001-0.014 0.001-0.031 0.001-0.048 0-0.112-0.023-0.218-0.064-0.315l0.002 0.005c-0.051-0.12-0.124-0.223-0.214-0.306l-0.001-0.001c-0.206-0.152-0.465-0.244-0.745-0.244-0.037 0-0.074 0.002-0.11 0.005l0.005-0h-1.094l0.013 1.799zM38.709 44.14h-2.635l-0.466 1.19h-1.386l2.42-5.846h1.498l2.41 5.846h-1.387l-0.455-1.19zM38.356 43.244l-0.963-2.496-0.962 2.496h1.926zM47.754 45.331h-1.311l-2.943-4.021v4.021h-1.309v-5.914h1.309l2.942 4.044v-4.044h1.312v5.913zM55.244 43.915c-0.286 0.456-0.69 0.814-1.17 1.036l-0.017 0.007c-0.571 0.26-1.205 0.388-1.845 0.372h-2.336v-5.913h2.336c0.032-0.001 0.070-0.001 0.108-0.001 0.628 0 1.225 0.134 1.764 0.376l-0.027-0.011c0.502 0.229 0.916 0.588 1.187 1.032 0.27 0.481 0.411 1.013 0.411 1.552-0.002 0.57-0.154 1.105-0.419 1.566l0.008-0.015zM53.743 43.774c0.356-0.364 0.576-0.862 0.58-1.411v-0.001c-0.005-0.549-0.225-1.047-0.581-1.411l0 0c-0.408-0.317-0.928-0.508-1.492-0.508-0.053 0-0.106 0.002-0.158 0.005l0.007-0h-0.911v3.828h0.911c0.046 0.003 0.099 0.005 0.152 0.005 0.564 0 1.083-0.191 1.497-0.511l-0.006 0.004zM39.531 6.525s16.939 5.757 16.58 14.088v14.092s-16.927-5.761-16.575-14.092l-0.006-14.088zM71.202 31.407c3.199-1.983 6.899-3.211 10.762-3.571v-4.412c-4.451 1.544-8.226 4.344-10.762 7.981z"></path>
<path d="M69.28 32.736c2.617-4.747 7.158-8.41 12.684-10.235v-12.711s-24.124 8.201-23.614 20.066v20.063s1.075-0.366 2.767-1.055c0-0.641 0-1.288 0.077-1.938 0.499-5.508 3.408-10.612 8.087-14.189z"></path>
<path d="M66.985 40.189c0.142-1.517 0.441-2.912 0.883-4.241l-0.038 0.133c-2.914 3.090-4.678 6.924-5.045 10.963-0.035 0.381-0.054 0.762-0.064 1.155 2.021-0.869 3.545-1.606 5.039-2.393l-0.399 0.192c-0.289-1.232-0.454-2.647-0.454-4.1 0-0.602 0.028-1.197 0.084-1.784l-0.006 0.075zM67.945 40.261c-0.047 0.487-0.074 1.053-0.074 1.625 0 1.287 0.136 2.542 0.394 3.752l-0.021-0.117c6.591-3.55 13.997-9.035 13.711-15.666v-0.579c-4.709 0.475-9.114 2.329-12.541 5.276-0.756 1.668-1.278 3.604-1.464 5.637l-0.005 0.071z"></path>
</symbol>

<symbol id="client-6" viewBox="0 0 104 56">
<path d="M51.618 26.463c-0.369-0.475-0.591-1.080-0.591-1.737 0-0.065 0.002-0.129 0.006-0.192l-0 0.009v-2.785c0-0.853 0.194-1.502 0.581-1.946s1.053-0.665 1.996-0.663c0.887 0 1.516 0.189 1.888 0.567 0.405 0.482 0.603 1.070 0.557 1.665v0.656h-1.585v-0.663c0.006-0.218-0.010-0.434-0.046-0.649-0.027-0.157-0.109-0.291-0.224-0.385l-0.001-0.001c-0.142-0.095-0.317-0.152-0.506-0.152-0.024 0-0.048 0.001-0.072 0.003l0.003-0c-0.021-0.002-0.045-0.002-0.070-0.002-0.199 0-0.384 0.060-0.538 0.163l0.004-0.002c-0.131 0.105-0.224 0.252-0.261 0.419l-0.001 0.005c-0.040 0.191-0.063 0.41-0.063 0.635 0 0.019 0 0.038 0.001 0.058l-0-0.003v3.38c-0.003 0.038-0.005 0.082-0.005 0.127 0 0.301 0.077 0.584 0.213 0.831l-0.004-0.009c0.082 0.102 0.189 0.181 0.311 0.229l0.005 0.002c0.128 0.049 0.27 0.067 0.41 0.053 0.203 0.014 0.405-0.040 0.561-0.153 0.122-0.102 0.208-0.245 0.236-0.407l0.001-0.004c0.037-0.224 0.054-0.45 0.049-0.677v-0.686h1.586v0.627c0.003 0.049 0.005 0.105 0.005 0.163 0 0.603-0.209 1.156-0.559 1.593l0.004-0.005c-0.364 0.414-0.984 0.62-1.897 0.62-0.912 0-1.602-0.221-1.993-0.68zM58.22 26.492c-0.4-0.434-0.601-1.066-0.601-1.902v-2.93c0-0.827 0.201-1.453 0.601-1.878s1.070-0.636 2.010-0.634c0.932 0 1.599 0.212 1.999 0.634 0.401 0.425 0.605 1.051 0.605 1.878v2.93c0 0.827-0.203 1.462-0.61 1.899-0.408 0.436-1.070 0.654-1.993 0.654s-1.606-0.221-2.010-0.651zM60.968 25.788c0.144-0.27 0.209-0.569 0.19-0.866v-3.587c0.002-0.029 0.003-0.062 0.003-0.096 0-0.276-0.070-0.536-0.194-0.762l0.004 0.008c-0.084-0.104-0.193-0.184-0.318-0.232l-0.005-0.002c-0.092-0.036-0.199-0.057-0.31-0.057-0.038 0-0.076 0.002-0.113 0.007l0.004-0c-0.032-0.004-0.070-0.007-0.107-0.007-0.112 0-0.219 0.021-0.318 0.059l0.006-0.002c-0.131 0.049-0.241 0.13-0.325 0.232l-0.001 0.001c-0.145 0.265-0.21 0.557-0.19 0.85v3.605c-0.020 0.298 0.045 0.595 0.19 0.867 0.093 0.091 0.206 0.164 0.335 0.214 0.121 0.049 0.261 0.077 0.407 0.077s0.287-0.028 0.415-0.080l-0.008 0.003c0.128-0.050 0.242-0.123 0.335-0.214v-0.017zM64.74 19.234h1.707l1.284 5.405 1.312-5.405h1.661l0.168 7.801h-1.228l-0.131-5.421-1.267 5.421h-0.985l-1.313-5.441-0.122 5.441h-1.241l0.154-7.801zM72.787 19.234h2.66c1.531 0 2.298 0.739 2.298 2.215 0 1.415-0.807 2.121-2.42 2.12h-0.905v3.467h-1.641l0.010-7.801zM75.059 22.568c0.162 0.017 0.327 0.005 0.482-0.039s0.299-0.113 0.42-0.208c0.152-0.206 0.244-0.465 0.244-0.746 0-0.048-0.003-0.095-0.008-0.141l0.001 0.006c0.001-0.027 0.002-0.058 0.002-0.089 0-0.22-0.029-0.433-0.084-0.636l0.004 0.017c-0.026-0.083-0.068-0.155-0.122-0.215l0 0.001c-0.057-0.064-0.126-0.117-0.203-0.155l-0.004-0.002c-0.191-0.081-0.413-0.128-0.646-0.128-0.031 0-0.061 0.001-0.091 0.002l0.004-0h-0.636v2.333h0.636zM80.112 19.234h1.763l1.809 7.801h-1.53l-0.357-1.798h-1.573l-0.368 1.798h-1.553l1.809-7.801zM81.619 24.333l-0.614-3.275-0.614 3.275h1.228zM85.145 19.234h1.149l2.199 4.45v-4.45h1.364v7.801h-1.094l-2.213-4.645v4.645h-1.408l0.003-7.801zM93.047 24.060l-1.828-4.816h1.54l1.116 3.093 1.047-3.093h1.507l-1.806 4.816v2.975h-1.576v-2.975zM54.152 30.446v0.408h-1.34v3.17h-0.56v-3.17h-1.347v-0.408h3.247zM58.351 34.024h-0.434c-0.003 0-0.007 0-0.011 0-0.041 0-0.079-0.013-0.11-0.034l0.001 0c-0.032-0.020-0.056-0.048-0.072-0.081l-0-0.001-0.388-0.85h-1.858l-0.388 0.85c-0.012 0.038-0.032 0.070-0.058 0.096v0c-0.031 0.021-0.070 0.034-0.112 0.034-0.004 0-0.007-0-0.011-0h-0.433l1.642-3.578h0.571l1.661 3.563zM55.633 32.696h1.55l-0.656-1.456c-0.042-0.092-0.084-0.204-0.118-0.319l-0.005-0.018c-0.023 0.067-0.042 0.133-0.062 0.19l-0.060 0.15-0.65 1.453zM61.181 33.673c0.103 0.005 0.206 0.005 0.309 0 0.089-0.008 0.176-0.022 0.263-0.042 0.094-0.020 0.173-0.043 0.25-0.070l-0.014 0.004c0.072-0.025 0.145-0.056 0.22-0.087v-0.805h-0.657c-0.002 0-0.004 0-0.006 0-0.015 0-0.030-0.003-0.043-0.007l0.001 0c-0.016-0.005-0.029-0.013-0.041-0.022l0 0c-0.010-0.008-0.019-0.017-0.025-0.028l-0-0c-0.005-0.009-0.008-0.021-0.008-0.033 0-0.001 0-0.002 0-0.003v0-0.276h1.274v1.371c-0.199 0.125-0.43 0.225-0.675 0.288l-0.017 0.004c-0.135 0.034-0.272 0.058-0.411 0.073-0.144 0.015-0.31 0.023-0.479 0.023-0 0-0 0-0 0v0c-0.005 0-0.012 0-0.018 0-0.29 0-0.568-0.049-0.827-0.139l0.018 0.005c-0.253-0.088-0.471-0.215-0.659-0.376l0.003 0.002c-0.176-0.156-0.319-0.344-0.42-0.557l-0.004-0.010c-0.095-0.211-0.151-0.458-0.151-0.718 0-0.009 0-0.017 0-0.026v0.001c-0-0.007-0-0.015-0-0.023 0-0.262 0.054-0.511 0.152-0.737l-0.005 0.012c0.094-0.212 0.239-0.405 0.424-0.566 0.187-0.161 0.411-0.287 0.656-0.371 0.282-0.092 0.581-0.137 0.88-0.133 0.153 0 0.306 0.010 0.456 0.031 0.134 0.019 0.264 0.049 0.391 0.091 0.116 0.038 0.226 0.085 0.328 0.142s0.197 0.119 0.286 0.187l-0.157 0.222c-0.013 0.021-0.032 0.037-0.053 0.048l-0.001 0c-0.022 0.012-0.047 0.019-0.074 0.019h-0c-0.038-0.001-0.073-0.012-0.103-0.029l0.001 0.001c-0.066-0.031-0.118-0.060-0.169-0.090l0.009 0.005c-0.062-0.034-0.135-0.067-0.211-0.093l-0.010-0.003c-0.083-0.030-0.185-0.057-0.289-0.077l-0.013-0.002c-0.119-0.020-0.256-0.031-0.395-0.031-0.007 0-0.015 0-0.022 0h0.001c-0.006-0-0.013-0-0.020-0-0.219 0-0.43 0.036-0.627 0.103l0.014-0.004c-0.183 0.063-0.347 0.159-0.482 0.283-0.137 0.129-0.241 0.28-0.307 0.445-0.070 0.177-0.11 0.382-0.11 0.596s0.040 0.419 0.114 0.608l-0.004-0.011c0.072 0.168 0.184 0.321 0.329 0.45 0.135 0.122 0.299 0.219 0.479 0.284 0.209 0.062 0.43 0.086 0.65 0.070zM66.414 33.616h1.794v0.408h-2.341v-3.578h0.561l-0.013 3.17zM70.072 34.024h-0.561v-3.578h0.561v3.578zM72.159 30.463c0.034 0.016 0.063 0.038 0.087 0.065l0 0 2.399 2.697c-0.002-0.019-0.002-0.041-0.002-0.064s0.001-0.045 0.003-0.067l-0 0.003v-2.666h0.489v3.592h-0.283c-0.006 0-0.013 0.001-0.020 0.001-0.037 0-0.071-0.007-0.103-0.021l0.002 0.001c-0.034-0.018-0.064-0.040-0.089-0.067l-0-0-2.396-2.695v2.782h-0.47v-3.578h0.292c0.032 0 0.064 0.006 0.093 0.016zM79.268 30.446v0.393h-1.99v1.181h1.611v0.38h-1.611v1.221h1.989v0.393h-2.568v-3.569h2.568zM20.438 8.35l24.929 6.108v21.402l-24.929-6.104v-21.407zM18.839 6.525v24.269l28.123 6.893v-24.267l-28.123-6.895z"></path>
<path d="M33.912 48.954l-28.126-6.898v-24.267l28.126 6.895v24.271z"></path>
<path d="M19.305 8.075l24.604 6.031-10.462 9.032-24.608-6.035 10.466-9.028zM18.839 6.525l-13.054 11.263 28.126 6.896 13.051-11.263-28.123-6.896zM35.495 47.587l11.467-9.897-11.468-2.813v12.711z"></path>
</symbol>

<!-- Criteria Logo -->

<symbol id="antenna" viewBox="0 0 64 64">
<path d="M61.546 44.195l-16.886-17.010 1.874-9.23c0.484 0.188 0.998 0.287 1.517 0.29h0.013c0.015 0 0.033 0 0.051 0 2.385 0 4.318-1.933 4.318-4.318s-1.933-4.318-4.318-4.318c-2.385 0-4.318 1.933-4.318 4.318 0 0.519 0.092 1.017 0.26 1.478l-0.010-0.030-9.92 1.21-16.182-16.265c-0.192-0.196-0.458-0.318-0.753-0.32h-0c-0.28 0.001-0.548 0.113-0.747 0.31l-3.025 3.008c-0.193 0.193-0.313 0.46-0.313 0.755s0.119 0.561 0.313 0.755v0l1.628 1.65c-2.286 4.124-3.631 9.044-3.631 14.277 0 8.212 3.312 15.65 8.673 21.051l-0.002-0.002c0.084 0.081 0.183 0.147 0.291 0.195-0.064 0.328-0.102 0.706-0.104 1.092v12.376h-12.8c-2.945 0.003-5.331 2.389-5.335 5.333v2.133c0 0.59 0.478 1.067 1.067 1.067h49.067c0.589 0 1.067-0.478 1.067-1.067v-2.133c-0.004-2.944-2.39-5.33-5.334-5.333h-12.8v-5.484c2.005 0.42 4.048 0.635 6.097 0.64 5.16-0.006 10.009-1.326 14.234-3.645l-0.154 0.078 1.637 1.646c0.198 0.202 0.469 0.318 0.753 0.32 0.28-0.002 0.548-0.113 0.746-0.31l3.025-3.009c0.193-0.193 0.312-0.46 0.312-0.754s-0.119-0.561-0.312-0.754v0zM46.56 12.466c0.386-0.383 0.917-0.62 1.504-0.62 1.178 0 2.133 0.955 2.133 2.133s-0.955 2.133-2.133 2.133c-0 0-0 0-0.001 0h-0.006c-1.173-0.006-2.123-0.959-2.123-2.133 0-0.591 0.241-1.127 0.629-1.513l0-0h-0.004zM44.049 19.476l-1.197 5.89-2.351-2.364 3.548-3.527zM42.837 17.672l-3.84 3.817-2.97-2.987 6.81-0.83zM48.008 57.6c1.767 0 3.2 1.433 3.2 3.2v0 1.067h-46.933v-1.067c0-1.767 1.433-3.2 3.2-3.2h40.533zM33.075 53.333v2.134h-10.667v-2.134h10.667zM22.408 51.2v-8.107c0-2.587 2.393-4.693 5.333-4.693 2.941 0 5.334 2.106 5.334 4.693v8.107h-10.667zM35.208 47.808v-4.715c0-3.764-3.35-6.826-7.466-6.826-0.035-0.001-0.076-0.001-0.118-0.001-2.705 0-5.080 1.413-6.427 3.542l-0.018 0.031c-4.719-4.963-7.622-11.692-7.622-19.099 0-4.628 1.133-8.992 3.138-12.828l-0.073 0.153 37.204 37.417c-3.645 1.894-7.959 3.004-12.532 3.004-2.157 0-4.257-0.247-6.272-0.715l0.187 0.036zM57.786 46.441l-42.114-42.361 1.51-1.504 15.87 15.96c0.007 0 0.011 0.013 0.019 0.019l26.229 26.382-1.514 1.504z"></path>
<path fill="#4d5ae5" style="fill: var(--color1, #4d5ae5)" d="M27.751 40.533h-0.010c-0.002 0-0.003 0-0.005 0-1.767 0-3.2 1.433-3.2 3.2 0 1.766 1.43 3.197 3.195 3.2h0.010c0.002 0 0.003 0 0.005 0 1.767 0 3.2-1.433 3.2-3.2 0-1.766-1.43-3.197-3.195-3.2h-0zM28.498 44.49c-0.193 0.191-0.458 0.309-0.751 0.309-0.589 0-1.067-0.478-1.067-1.067 0-0.001 0-0.003 0-0.004v0c0.004-0.584 0.477-1.057 1.061-1.061h0c0.587 0.003 1.061 0.48 1.061 1.067 0 0.295-0.12 0.563-0.314 0.756l-0 0h0.010z"></path>
</symbol>

<symbol id="clock" viewBox="0 0 64 64">
<path d="M62.593 30.602c-0.003-16.904-13.71-30.605-30.616-30.602-16.904 0.003-30.605 13.71-30.602 30.616 0.003 13.576 8.844 25.086 21.083 29.091l0.216 0.061c0.12 0.038 0.247 0.058 0.373 0.057 0.242 0 0.478-0.065 0.685-0.187 0.27-0.16 0.472-0.414 0.567-0.713l7.73-24.5c2.107-0.008 3.812-1.718 3.812-3.826 0-2.113-1.713-3.826-3.826-3.826-0.606 0-1.18 0.141-1.689 0.392l0.022-0.010-10.212-10.213c-0.231-0.231-0.549-0.373-0.901-0.373-0.704 0-1.275 0.571-1.275 1.275 0 0.352 0.143 0.671 0.374 0.902v0l10.207 10.218c-0.242 0.482-0.383 1.050-0.383 1.651 0 1.203 0.566 2.274 1.447 2.96l0.008 0.006-7.365 23.346c-14.556-5.362-22.009-21.508-16.647-36.064 5.362-14.554 21.509-22.009 36.064-16.647s22.008 21.509 16.647 36.064c-2.69 7.162-8.007 12.812-14.749 15.875l-0.176 0.072-0.796-3.749c-0.127-0.581-0.637-1.011-1.247-1.011-0.327 0-0.624 0.123-0.85 0.325l0.001-0.001-7.674 6.851c-0.263 0.235-0.428 0.575-0.428 0.953 0 0.567 0.37 1.047 0.881 1.213l0.009 0.002 9.797 3.127c0.117 0.039 0.251 0.061 0.391 0.061 0.704 0 1.275-0.571 1.275-1.275 0-0.094-0.010-0.186-0.030-0.275l0.002 0.008-0.782-3.678c11.055-4.749 18.657-15.543 18.657-28.113 0-0.023 0-0.045-0-0.068v0.004zM31.984 29.327c0.705 0 1.276 0.571 1.276 1.276s-0.571 1.276-1.276 1.276v0c-0.705 0-1.276-0.571-1.276-1.276s0.571-1.276 1.276-1.276v0zM36.185 59.055l4.368-3.896 1.206 5.68-5.574-1.784z"></path>
<path fill="#4d5ae5" style="fill: var(--color1, #4d5ae5)" d="M30.709 6.37v2.55c0 0.704 0.571 1.275 1.275 1.275s1.275-0.571 1.275-1.275v-2.55c-0.028-0.683-0.588-1.226-1.275-1.226s-1.247 0.543-1.275 1.223l-0 0.003zM7.752 29.327c-0.704 0-1.275 0.571-1.275 1.275s0.571 1.275 1.275 1.275h2.55c0.704 0 1.275-0.571 1.275-1.275s-0.571-1.275-1.275-1.275h-2.55zM56.216 31.878c0.704 0 1.275-0.571 1.275-1.275s-0.571-1.275-1.275-1.275h-2.55c-0.683 0.028-1.225 0.588-1.225 1.275s0.543 1.247 1.223 1.275l0.002 0h2.55z"></path>
</symbol>

<symbol id="diagram" viewBox="0 0 64 64">
<path fill="#4d5ae5" style="fill: var(--color1, #4d5ae5)" d="M29.851 29.93h2.132v9.594h-2.132v-9.594zM38.38 34.194h2.132v5.33h-2.132v-5.33zM21.322 37.392h2.132v2.132h-2.132v-2.132zM14.925 36.326h2.133v3.198h-2.133v-3.198z"></path>
<path  d="M3.198 56.582h51.173c0 0 0.001 0 0.001 0 1.766 0 3.198-1.432 3.198-3.198v0-4.265c0-1.766-1.432-3.198-3.198-3.198-0 0-0.001 0-0.001 0h-1.066v-26.587l6.056-5.736c0.415 0.209 0.904 0.331 1.422 0.331 1.776 0 3.216-1.44 3.216-3.216s-1.44-3.216-3.216-3.216c-1.776 0-3.216 1.44-3.216 3.216 0 0.493 0.111 0.96 0.309 1.378l-0.008-0.020-4.563 4.325v-2.46c0-1.766-1.432-3.198-3.198-3.198v0h-42.644c-0 0-0.001 0-0.001 0-1.766 0-3.198 1.432-3.198 3.198 0 0 0 0.001 0 0.001v-0 31.982h-1.066c-1.766 0-3.198 1.432-3.198 3.198 0 0 0 0.001 0 0.001v-0 4.265c0 1.766 1.432 3.198 3.198 3.198v0zM60.768 9.673c0.589 0 1.066 0.477 1.066 1.066s-0.477 1.066-1.066 1.066v0c-0.589 0-1.066-0.477-1.066-1.066s0.477-1.066 1.066-1.066v0zM6.397 13.938c0-0.59 0.477-1.067 1.066-1.067h42.644c0.589 0 1.066 0.478 1.066 1.067v4.477l-2.132 2.026v-4.371c0-0.589-0.477-1.066-1.066-1.066h-38.38c-0.589 0-1.066 0.477-1.066 1.066v26.652c0 0.59 0.477 1.067 1.066 1.067h38.38c0.589 0 1.066-0.478 1.066-1.067v-19.348l2.132-2.020v24.566h-44.776v-31.982zM15.992 27.797c-0.003 0-0.006 0-0.009 0-1.766 0-3.198 1.432-3.198 3.198s1.432 3.198 3.198 3.198c0.864 0 1.648-0.343 2.224-0.9l-0.001 0.001 3.706 1.86c0.43 0.215 0.953 0.114 1.273-0.246l7.877-8.863 7.744 5.803c0.416 0.311 0.996 0.278 1.372-0.079l6.73-6.375v16.262h-36.246v-24.52h36.248v5.32l-7.544 7.144-7.81-5.855c-0.176-0.132-0.398-0.212-0.638-0.212-0.316 0-0.6 0.138-0.796 0.356l-0.001 0.001-7.986 8.985-2.986-1.493c0.022-0.128 0.036-0.257 0.041-0.387-0.001-1.766-1.432-3.197-3.198-3.198h-0zM17.058 30.995c0 0.589-0.477 1.067-1.066 1.067s-1.066-0.477-1.066-1.067v0c0-0.589 0.477-1.067 1.066-1.067s1.066 0.477 1.066 1.067v0zM23.454 48.053h10.661v1.066c0 0.589-0.477 1.066-1.066 1.066h-8.529c-0.589 0-1.066-0.477-1.066-1.066v0-1.066zM2.132 49.12c0-0.589 0.478-1.066 1.066-1.066h18.124v1.066c0 0 0 0.001 0 0.001 0 1.766 1.432 3.198 3.198 3.198h8.53c1.766 0 3.198-1.432 3.198-3.198 0-0 0-0.001 0-0.001v0-1.066h18.122c0.59 0 1.067 0.477 1.067 1.066v4.265c0 0.588-0.478 1.066-1.067 1.066h-51.172c-0.589 0-1.066-0.477-1.066-1.066v0-4.265z"></path>
</symbol>

<symbol id="astronaut" viewBox="0 0 64 64">
<path fill="#4d5ae5" style="fill: var(--color1, #4d5ae5)" d="M63.948 9.048c-0.127-0.382-0.454-0.664-0.854-0.724l-0.006-0.001-3.822-0.556-1.71-3.462c-0.358-0.73-1.553-0.73-1.912 0l-1.71 3.462-3.82 0.556c-0.519 0.078-0.913 0.521-0.913 1.056 0 0.299 0.123 0.569 0.321 0.763l2.765 2.695-0.653 3.806c-0.068 0.4 0.096 0.804 0.424 1.043 0.332 0.241 0.765 0.271 1.124 0.081l3.418-1.797 3.417 1.797c0.144 0.077 0.314 0.122 0.495 0.122 0.59 0 1.068-0.478 1.068-1.068 0-0.063-0.005-0.124-0.016-0.184l0.001 0.006-0.652-3.806 2.766-2.695c0.199-0.194 0.322-0.465 0.322-0.765 0-0.118-0.019-0.231-0.054-0.337l0.002 0.008zM59.022 11.702c-0.25 0.244-0.366 0.598-0.306 0.944l0.382 2.228-2.001-1.051c-0.144-0.078-0.315-0.123-0.497-0.123s-0.353 0.046-0.503 0.126l0.006-0.003-2.001 1.051 0.381-2.228c0.010-0.054 0.015-0.117 0.015-0.18 0-0.299-0.123-0.57-0.321-0.763l-1.62-1.579 2.238-0.325c0.348-0.050 0.647-0.269 0.803-0.584l1-2.026 1.002 2.026c0.156 0.315 0.456 0.534 0.804 0.584l2.237 0.325-1.618 1.579zM52.267 41.044h-2.134v2.134h2.134v-2.134zM52.267 45.311h-2.134v2.134h2.134v-2.135z"></path>
<path fill="#4d5ae5" style="fill: var(--color1, #4d5ae5)" d="M54.4 43.178h-2.133v2.133h2.133v-2.133zM50.134 43.178h-2.134v2.133h2.134v-2.133zM44.8 52.778h-2.133v2.133h2.133v-2.133zM44.8 57.045h-2.133v2.133h2.133v-2.133zM46.934 54.911h-2.134v2.134h2.134v-2.135z"></path>
<path fill="#4d5ae5" style="fill: var(--color1, #4d5ae5)" d="M42.667 54.911h-2.134v2.134h2.134v-2.135zM32 48.511h-2.133v2.134h2.133v-2.135zM32 52.778h-2.133v2.133h2.133v-2.133zM34.133 50.645h-2.133v2.133h2.133v-2.133zM29.867 50.645h-2.134v2.133h2.134v-2.133zM11.733 12.244h-2.133v2.133h2.133v-2.133zM11.733 16.51h-2.133v2.134h2.133v-2.133zM13.866 14.377h-2.133v2.134h2.133v-2.134zM9.6 14.377h-2.134v2.134h2.134v-2.134z"></path>
<path d="M49.43 28.319c-0.56-0.753-1.397-1.273-2.358-1.408l-0.019-0.002c-0.153-0.023-0.329-0.036-0.508-0.036-0.822 0-1.578 0.279-2.18 0.747l0.008-0.006-2.504 1.919-3.796 2.835-2.715-1.082c4.842-2.172 8.227-7.016 8.227-12.64 0-7.646-6.245-13.866-13.922-13.866s-13.923 6.22-13.923 13.866c0 2.771 0.828 5.348 2.24 7.517l-5.538-0.048c-0.017 0-0.030 0.009-0.047 0.010-0.105 0.004-0.209 0.025-0.31 0.061-0.026 0.010-0.052 0.015-0.077 0.027-0.013 0.005-0.025 0.006-0.038 0.013l-6.468 3.193-3.787 1.822c-0.048 0.022-0.090 0.045-0.129 0.072l0.003-0.002c-0.963 0.647-1.588 1.733-1.588 2.964 0 0.593 0.145 1.153 0.402 1.645l-0.009-0.020c0.44 0.858 1.19 1.49 2.112 1.779 0.321 0.105 0.691 0.166 1.074 0.166 0.616 0 1.196-0.157 1.701-0.432l-0.019 0.009 2.776-1.476 4.528-2.339 2.714-0.015-10.884 10.83c0 0.002-0.002 0.002-0.003 0.003l-2.677 2.666c-0.605 0.598-0.98 1.428-0.98 2.346 0 0.004 0 0.007 0 0.011v-0.001c0 0.89 0.347 1.727 0.98 2.357 0.65 0.647 1.504 0.97 2.358 0.97 0.856 0 1.709-0.323 2.36-0.97l2.629-2.617 3.481-2.6 1.802 1.794-6.204 6.177c-0.605 0.598-0.98 1.428-0.98 2.346 0 0.003 0 0.006 0 0.010v-0.001c0 0.89 0.348 1.727 0.98 2.358 0.65 0.646 1.505 0.97 2.36 0.97 0.854 0 1.71-0.324 2.36-0.97l6.964-6.933c0-0.002 0-0.003 0.002-0.004l2.019-2-0.008-0.007c0.013-0.013 0.031-0.017 0.044-0.031l10.332-11.316 6.942 0.987c0.041 0.006 0.088 0.009 0.136 0.009 0.14 0 0.274-0.027 0.397-0.077l-0.007 0.003c0.035-0.013 0.066-0.030 0.1-0.047 0.038-0.019 0.078-0.030 0.114-0.054l6.427-4.267c0.024-0.016 0.036-0.041 0.059-0.059 0.025-0.020 0.057-0.028 0.080-0.050l2.544-2.383c0.694-0.651 1.127-1.574 1.127-2.598 0-0.801-0.264-1.54-0.711-2.134l0.007 0.009zM4.26 35.54c-0.346 0.186-0.74 0.223-1.116 0.104-0.589-0.185-1.009-0.727-1.009-1.367 0-0.472 0.228-0.89 0.581-1.151l0.004-0.003 2.628-1.264 0.632 1.849 0.266 0.776-1.985 1.055zM11.255 31.885l-3.097 1.6-0.51-1.494-0.367-1.073 4.053-2-0.079 2.967zM41.454 18.644c0 1.837-0.438 3.57-1.198 5.119l-8.363-3.798c-0.087-1.15-0.684-2.145-1.564-2.768l-0.012-0.008 2.928-9.72c4.755 1.511 8.209 5.947 8.209 11.174zM17.876 18.644c0-6.47 5.289-11.734 11.789-11.734 0.506 0 1 0.043 1.49 0.105l-2.864 9.507c-0.038 0-0.075-0.011-0.114-0.011-0 0-0.001 0-0.001 0-2.064 0-3.738 1.67-3.744 3.732v0.001c0.006 2.063 1.68 3.733 3.744 3.733 0 0 0.001 0 0.001 0h-0c1.389 0 2.589-0.766 3.236-1.889l7.725 3.51c-2.15 2.893-5.59 4.78-9.473 4.78-6.5 0-11.789-5.265-11.789-11.734zM29.789 20.244c0 0.882-0.724 1.6-1.612 1.6-0.001 0-0.003 0-0.004 0-0.885 0-1.603-0.715-1.608-1.6v-0c0-0.882 0.723-1.6 1.612-1.6 0.888 0 1.612 0.718 1.612 1.6zM4.929 50.292c-0.22 0.217-0.522 0.351-0.855 0.351-0.332 0-0.634-0.133-0.853-0.349l0 0c-0.218-0.215-0.353-0.514-0.353-0.845s0.135-0.629 0.353-0.844l0-0 1.924-1.917 1.702 1.695-1.917 1.91zM11.357 57.759c-0.22 0.218-0.522 0.352-0.856 0.352-0.333 0-0.635-0.134-0.854-0.35l0 0c-0.218-0.215-0.352-0.514-0.352-0.845s0.135-0.629 0.352-0.844l0-0 1.926-1.918 1.703 1.695-1.919 1.91zM18.321 50.822l-0.004 0.002-3.53 3.52-1.703-1.695 3.527-3.512s0.002 0 0.003-0.002c0.080-0.080 0.13-0.176 0.18-0.27 0.013-0.028 0.040-0.052 0.052-0.080 0.033-0.083 0.038-0.171 0.050-0.258 0.007-0.049 0.028-0.095 0.028-0.145 0-0.071-0.025-0.14-0.040-0.211-0.013-0.064-0.013-0.13-0.037-0.191-0.040-0.1-0.11-0.189-0.183-0.275-0.020-0.024-0.027-0.054-0.050-0.076h-0.001l-0.002-0.004-3.214-3.2c-0.034-0.034-0.078-0.048-0.116-0.077-0.051-0.042-0.108-0.080-0.168-0.112l-0.006-0.003c-0.053-0.025-0.115-0.048-0.18-0.064l-0.007-0.001c-0.060-0.019-0.13-0.033-0.202-0.040l-0.004-0c-0.012-0.001-0.027-0.001-0.041-0.001-0.053 0-0.104 0.004-0.155 0.011l0.006-0.001c-0.077 0.007-0.148 0.021-0.217 0.042l0.008-0.002c-0.072 0.026-0.134 0.056-0.192 0.092l0.004-0.002c-0.040 0.022-0.085 0.030-0.122 0.057l-3.547 2.648-1.801-1.794 4.798-4.773 8.72 8.578-1.854 1.838zM31.958 36.788c-0.030-0.004-0.060 0.008-0.090 0.006-0.015-0.001-0.034-0.001-0.052-0.001-0.063 0-0.125 0.006-0.184 0.016l0.006-0.001c-0.139 0.022-0.264 0.069-0.374 0.138l0.004-0.002c-0.060 0.036-0.114 0.075-0.166 0.123-0.026 0.022-0.057 0.033-0.080 0.058l-9.397 10.292-8.656-8.514 5.666-5.636c0.193-0.193 0.312-0.46 0.312-0.754 0-0.59-0.478-1.068-1.068-1.068-0.001 0-0.002 0-0.003 0h0l-4.437 0.026 0.055-3.215 6.208 0.053c2.527 2.593 6.054 4.202 9.957 4.202 0.002 0 0.005 0 0.007 0h-0c0.875 0 1.728-0.090 2.559-0.245 0.080 0.064 0.159 0.129 0.26 0.17l4.818 1.92 0.305 1.516 0.357 1.77-6.006-0.854zM40.041 37.145l-0.627-3.116 2.893-2.16 1.894 2.513-4.16 2.763zM47.548 31.483l-1.676 1.57-1.862-2.473 1.663-1.274c0.31-0.24 0.701-0.336 1.085-0.286 0.387 0.054 0.728 0.256 0.96 0.568 0.434 0.584 0.36 1.398-0.17 1.895z"></path>
<path d="M27.204 37.088l-4.286-4.267c-0.193-0.192-0.459-0.311-0.753-0.311s-0.56 0.119-0.753 0.311l-4.285 4.267c-0.193 0.194-0.312 0.461-0.312 0.757s0.119 0.563 0.313 0.757l-0-0 4.285 4.266c0.193 0.192 0.459 0.311 0.753 0.311s0.56-0.119 0.753-0.311l4.286-4.266c0.194-0.193 0.315-0.461 0.315-0.757s-0.12-0.563-0.314-0.756l-0-0zM22.166 40.606l-2.773-2.762 2.773-2.761 2.775 2.761-2.775 2.762zM34.328 10.142l-0.515 2.071c0.142 0.035 3.475 0.904 3.475 4.298h2.134c0-4.034-3.331-5.931-5.093-6.37zM39.422 18.644h-2.133v2.134h2.133v-2.134z"></path>
</symbol>

<!-- Social media logos -->

<symbol id="instagram" viewBox="0 0 16 16">
<path d="M15.984 4.704c-0.037-0.85-0.175-1.435-0.372-1.941-0.212-0.556-0.527-1.029-0.924-1.418l-0.001-0.001c-0.39-0.396-0.862-0.709-1.389-0.913l-0.027-0.009c-0.51-0.197-1.090-0.335-1.94-0.372-0.858-0.040-1.131-0.050-3.301-0.050-2.173 0-2.445 0.010-3.298 0.047-0.85 0.037-1.434 0.175-1.94 0.372-0.556 0.212-1.030 0.527-1.419 0.924l-0.001 0.001c-0.396 0.39-0.709 0.862-0.913 1.389l-0.009 0.027c-0.197 0.51-0.334 1.090-0.372 1.94-0.040 0.857-0.050 1.13-0.050 3.301 0 2.173 0.010 2.445 0.047 3.298 0.037 0.85 0.175 1.435 0.372 1.941 0.203 0.538 0.519 1.019 0.925 1.42 0.4 0.405 0.885 0.721 1.416 0.921 0.51 0.197 1.090 0.335 1.941 0.372 0.853 0.038 1.125 0.047 3.298 0.047s2.444-0.010 3.297-0.047c0.85-0.037 1.435-0.175 1.941-0.372 1.078-0.425 1.916-1.262 2.331-2.312l0.010-0.028c0.197-0.51 0.335-1.092 0.372-1.942 0.038-0.853 0.047-1.125 0.047-3.297s-0.003-2.445-0.040-3.298zM14.544 11.236c-0.035 0.782-0.166 1.204-0.276 1.485-0.275 0.7-0.819 1.244-1.501 1.514l-0.018 0.006c-0.281 0.109-0.706 0.24-1.484 0.274-0.844 0.038-1.097 0.047-3.232 0.047s-2.391-0.010-3.232-0.047c-0.782-0.034-1.204-0.165-1.485-0.275-0.361-0.135-0.668-0.338-0.918-0.596l-0.001-0.001c-0.258-0.252-0.462-0.559-0.591-0.902l-0.006-0.017c-0.11-0.281-0.24-0.706-0.275-1.484-0.037-0.844-0.047-1.098-0.047-3.232s0.010-2.391 0.047-3.232c0.035-0.782 0.166-1.203 0.275-1.485 0.128-0.347 0.332-0.662 0.6-0.919 0.26-0.265 0.572-0.469 0.92-0.597 0.28-0.11 0.706-0.24 1.484-0.275 0.844-0.037 1.097-0.047 3.232-0.047 2.138 0 2.39 0.010 3.232 0.047 0.781 0.035 1.203 0.166 1.484 0.275 0.347 0.128 0.663 0.332 0.92 0.597 0.265 0.26 0.468 0.572 0.596 0.92 0.11 0.28 0.241 0.706 0.275 1.484 0.038 0.844 0.047 1.097 0.047 3.232s-0.009 2.385-0.046 3.229z"></path>
<path d="M8.030 3.891c-2.231 0.051-4.020 1.871-4.020 4.11s1.789 4.059 4.016 4.11l0.005 0c2.231-0.051 4.020-1.871 4.020-4.11s-1.789-4.059-4.016-4.11l-0.005-0zM8.030 10.668c-1.473 0-2.667-1.194-2.667-2.667s1.194-2.667 2.667-2.667v0c1.473 0 2.667 1.194 2.667 2.667s-1.194 2.667-2.667 2.667v0zM13.262 3.729c0 0.53-0.43 0.96-0.96 0.96s-0.96-0.43-0.96-0.96v0c0-0.53 0.43-0.96 0.96-0.96s0.96 0.43 0.96 0.96v0z"></path>
</symbol>

<symbol id="twitter" viewBox="0 0 16 16">
<path d="M16 3.039c-0.55 0.247-1.188 0.429-1.856 0.514l-0.034 0.004c0.68-0.408 1.191-1.039 1.436-1.79l0.007-0.023c-0.599 0.361-1.296 0.637-2.038 0.787l-0.042 0.007c-0.6-0.639-1.45-1.038-2.394-1.038-1.811 0-3.28 1.468-3.28 3.28v0c0 0.26 0.022 0.51 0.076 0.748-2.734-0.138-5.139-1.439-6.748-3.414l-0.013-0.017c-0.281 0.474-0.448 1.045-0.448 1.655 0 1.132 0.573 2.13 1.444 2.721l0.012 0.007c-0.546-0.015-1.054-0.162-1.498-0.411l0.016 0.008v0.036c0.002 1.582 1.118 2.903 2.606 3.219l0.022 0.004c-0.25 0.069-0.538 0.108-0.834 0.108-0.009 0-0.018-0-0.027-0l0.001 0c-0.015 0-0.033 0-0.052 0-0.202 0-0.398-0.021-0.588-0.060l0.019 0.003c0.436 1.312 1.637 2.248 3.061 2.285l0.004 0c-1.107 0.872-2.522 1.399-4.060 1.399-0.003 0-0.005 0-0.008 0h0c-0.269 0-0.527-0.012-0.785-0.045 1.413 0.923 3.143 1.472 5.002 1.472 0.011 0 0.021-0 0.032-0h-0.002c6.036 0 9.336-5 9.336-9.334 0-0.145-0.005-0.285-0.012-0.424 0.649-0.468 1.195-1.033 1.629-1.679l0.015-0.024z"></path>
</symbol>

<symbol id="facebook" viewBox="0 0 16 16">
<path d="M10.665 2.657h1.46v-2.544c-0.619-0.072-1.336-0.113-2.063-0.113-0.023 0-0.046 0-0.069 0l0.004-0c-2.106 0-3.547 1.325-3.547 3.76v2.24h-2.325v2.844h2.324v7.156h2.849v-7.155h2.23l0.354-2.845h-2.585v-1.96c0.001-0.822 0.222-1.384 1.368-1.384z"></path>
</symbol>

<symbol id="linkedin" viewBox="0 0 16 16">
<path d="M15.996 16h0.004v-5.87c0-2.87-0.618-5.082-3.974-5.082-1.613 0-2.696 0.886-3.138 1.725h-0.047v-1.456h-3.181v10.683h3.314v-5.29c0-1.393 0.264-2.74 1.988-2.74 1.7 0 1.725 1.59 1.725 2.83v5.2h3.31zM0.264 5.318h3.317v10.682h-3.317v-10.682zM1.921 0c-1.060 0-1.921 0.86-1.921 1.92s0.86 1.94 1.921 1.94 1.922-0.88 1.922-1.94c-0.001-1.059-0.863-1.92-1.923-1.92z"></path>
</symbol>

<!-- Modal SVG -->

<symbol id="modal-close" viewBox="0 0 24 24">
<path d="M16 8.80571L15.1943 8L12 11.1943L8.80571 8L8 8.80571L11.1943 12L8 15.1943L8.80571 16L12 12.8057L15.1943 16L16 15.1943L12.8057 12L16 8.80571Z"></path>
</symbol>

<!-- Input Icons -->

<symbol id="subscribe" viewBox="0 0 24 24">
<path d="M24 2L0 13.25L7.66994 15.6172L19.5 6.375L10.5017 16.4913L10.509 16.4936L10.5 16.4913V22L14.8013 17.8183L20.2501 19.5L24 2Z" fill="white"/>
</symbol>

<symbol id="person" viewBox="0 0 18 18">
<path d="M9 9c1.657 0 3-1.342 3-3s-1.342-3-3-3c-1.657 0-3 1.342-3 3s1.342 3 3 3zM9 10.5c-2.003 0-6 1.005-6 3v0.75c0 0.413 0.337 0.75 0.75 0.75h10.5c0.413 0 0.75-0.338 0.75-0.75v-0.75c0-1.995-3.997-3-6-3z"></path>
</symbol>

<symbol id="phone" viewBox="0 0 18 18">
<path d="m14.73 13.87-1.84-.21c-.44-.06-.88.1-1.19.4l-1.33 1.34a10.89 10.89 0 0 1-4.77-4.77l1.34-1.34c.31-.31.46-.74.41-1.19l-.2-1.82A1.45 1.45 0 0 0 5.7 5H4.45c-.82 0-1.5.68-1.45 1.5A12.3 12.3 0 0 0 14.5 18c.82.05 1.5-.63 1.5-1.45V15.3c0-.73-.54-1.35-1.27-1.43Z"/>
</symbol>

<symbol id="email" viewBox="0 0 18 18">
<path d="M15 6H3c-.83 0-1.5.67-1.5 1.5v9c0 .82.67 1.5 1.5 1.5h12c.82 0 1.5-.68 1.5-1.5v-9c0-.83-.68-1.5-1.5-1.5Zm-.3 3.19L9.4 12.5a.76.76 0 0 1-.8 0L3.3 9.2a.64.64 0 1 1 .68-1.08L9 11.25l5.03-3.14a.64.64 0 1 1 .67 1.08Z"/>
</symbol>

<symbol id="icon-check" viewBox="0 0 16 16">
<path d="M11.4456 4.25506C11.6184 4.08965 11.8483 3.99821 12.0869 4.00003C12.3255 4.00184 12.5541 4.09677 12.7244 4.26478C12.8947 4.4328 12.9934 4.66075 12.9997 4.90055C13.006 5.14034 12.9194 5.37323 12.7582 5.55005L7.86357 11.7044C7.7794 11.7955 7.67782 11.8686 7.5649 11.9194C7.45198 11.9702 7.33003 11.9975 7.20636 11.9998C7.08268 12.0021 6.95981 11.9793 6.8451 11.9328C6.73038 11.8863 6.62618 11.817 6.53872 11.729L3.29283 8.46564C3.20243 8.38096 3.12993 8.27884 3.07965 8.16537C3.02936 8.05191 3.00232 7.92942 3.00014 7.80522C2.99796 7.68102 3.02069 7.55765 3.06696 7.44248C3.11323 7.3273 3.18211 7.22267 3.26947 7.13483C3.35684 7.047 3.4609 6.97775 3.57547 6.93123C3.69003 6.88471 3.81273 6.86186 3.93627 6.86405C4.0598 6.86624 4.18163 6.89343 4.29449 6.94398C4.40734 6.99454 4.50892 7.06743 4.59315 7.15831L7.16189 9.73967L11.4223 4.28219C11.4299 4.27269 11.4381 4.26364 11.4468 4.25506H11.4456Z" fill="#F4F4FD"/>
</symbol>

<!-- Menu Hamburger Bar -->
<symbol id="hamburger-open" viewBox="0 0 32 22">
<path d="M6.4 11.734V9.6h19.2v2.134H6.4zm0 5.332h19.2v-2.133H6.4v2.133zm0 5.334h19.2v-2.134H6.4V22.4z"/>
</symbol>

<symbol id="hamburger-close" viewBox="0 0 24 24">
<path d="M23.734 10.304 22.23 8.8l-5.963 5.962L10.305 8.8l-1.504 1.504 5.962 5.962-5.962 5.963 1.504 1.504 5.962-5.963 5.963 5.963 1.504-1.504-5.963-5.963 5.963-5.962z"/>
</symbol>

</defs>
</svg>

